<svg width="162" height="140" viewBox="0 0 162 140" fill="none" xmlns="http://www.w3.org/2000/svg">
<path d="M5.61035 124.079L13.623 126.774V131.271L0.673828 125.998V122.102L13.623 116.828V121.311L5.61035 124.079Z" fill="#5E5F63"/>
<path d="M16.7617 124.958C16.7617 122.448 17.3037 120.471 18.3877 119.025C19.4717 117.58 20.9854 116.857 22.9287 116.857C24.3447 116.857 25.5361 117.414 26.5029 118.527V110.5H31.4541V133H27.0156L26.7666 131.301C25.751 132.629 24.4619 133.293 22.8994 133.293C21.0146 133.293 19.5205 132.57 18.417 131.125C17.3135 129.68 16.7617 127.624 16.7617 124.958ZM21.6982 125.266C21.6982 128.078 22.5186 129.484 24.1592 129.484C25.2529 129.484 26.0342 129.025 26.5029 128.107V122.072C26.0537 121.135 25.2822 120.666 24.1885 120.666C22.665 120.666 21.8398 121.896 21.7129 124.357L21.6982 125.266ZM41.9277 133.293C39.4961 133.293 37.5283 132.57 36.0244 131.125C34.5205 129.67 33.7686 127.78 33.7686 125.456V125.046C33.7686 123.425 34.0664 121.994 34.6621 120.754C35.2676 119.514 36.1465 118.557 37.2988 117.883C38.4512 117.199 39.8184 116.857 41.4004 116.857C43.627 116.857 45.3848 117.551 46.6738 118.938C47.9629 120.314 48.6074 122.238 48.6074 124.709V126.628H38.793C38.9688 127.517 39.3545 128.215 39.9502 128.723C40.5459 129.23 41.3174 129.484 42.2646 129.484C43.8271 129.484 45.0479 128.938 45.9268 127.844L48.1826 130.51C47.5674 131.359 46.6934 132.038 45.5605 132.546C44.4375 133.044 43.2266 133.293 41.9277 133.293ZM41.3711 120.666C39.9258 120.666 39.0664 121.623 38.793 123.537H43.7734V123.156C43.793 122.365 43.5928 121.755 43.1729 121.325C42.7529 120.886 42.1523 120.666 41.3711 120.666ZM56.7227 127.126L59.2275 117.15H64.4277L59.2568 133H54.2178L49.0469 117.15H54.2617L56.7227 127.126Z" fill="#DDDDDD"/>
<path d="M72.1338 113.21V117.15H74.7412V120.578H72.1338V127.829C72.1338 128.425 72.2412 128.84 72.4561 129.074C72.6709 129.309 73.0957 129.426 73.7305 129.426C74.2188 129.426 74.6289 129.396 74.9609 129.338V132.868C74.0723 133.151 73.1445 133.293 72.1777 133.293C70.4785 133.293 69.2236 132.893 68.4131 132.092C67.6025 131.291 67.1973 130.075 67.1973 128.444V120.578H65.1758V117.15H67.1973V113.21H72.1338ZM86.2842 121.618L84.6582 121.501C83.1055 121.501 82.1094 121.989 81.6699 122.966V133H76.7334V117.15H81.3623L81.5234 119.187C82.3535 117.634 83.5107 116.857 84.9951 116.857C85.5225 116.857 85.9814 116.916 86.3721 117.033L86.2842 121.618ZM96.5527 133C96.377 132.678 96.2207 132.204 96.084 131.579C95.1758 132.722 93.9062 133.293 92.2754 133.293C90.7812 133.293 89.5117 132.844 88.4668 131.945C87.4219 131.037 86.8994 129.899 86.8994 128.532C86.8994 126.813 87.5342 125.515 88.8037 124.636C90.0732 123.757 91.9189 123.317 94.3408 123.317H95.8643V122.482C95.8643 121.027 95.2344 120.3 93.9746 120.3C92.8027 120.3 92.2168 120.876 92.2168 122.028H87.2803C87.2803 120.495 87.9297 119.25 89.2285 118.293C90.5371 117.336 92.2021 116.857 94.2236 116.857C96.2451 116.857 97.8418 117.351 99.0137 118.337C100.186 119.323 100.786 120.676 100.815 122.395V129.411C100.835 130.866 101.06 131.979 101.489 132.751V133H96.5527ZM93.4619 129.777C94.0771 129.777 94.585 129.646 94.9854 129.382C95.3955 129.118 95.6885 128.82 95.8643 128.488V125.954H94.4287C92.71 125.954 91.8506 126.726 91.8506 128.269C91.8506 128.718 92.002 129.084 92.3047 129.367C92.6074 129.641 92.9932 129.777 93.4619 129.777ZM108.77 133H103.818V117.15H108.77V133ZM103.525 113.063C103.525 112.36 103.779 111.784 104.287 111.335C104.795 110.886 105.454 110.661 106.265 110.661C107.075 110.661 107.734 110.886 108.242 111.335C108.75 111.784 109.004 112.36 109.004 113.063C109.004 113.767 108.75 114.343 108.242 114.792C107.734 115.241 107.075 115.466 106.265 115.466C105.454 115.466 104.795 115.241 104.287 114.792C103.779 114.343 103.525 113.767 103.525 113.063ZM117.031 133H112.08V110.5H117.031V133ZM128.384 128.547C128.384 128.127 128.164 127.79 127.725 127.536C127.285 127.282 126.45 127.019 125.22 126.745C123.989 126.472 122.974 126.115 122.173 125.676C121.372 125.227 120.762 124.685 120.342 124.05C119.922 123.415 119.712 122.688 119.712 121.867C119.712 120.412 120.312 119.216 121.514 118.278C122.715 117.331 124.287 116.857 126.23 116.857C128.32 116.857 130 117.331 131.27 118.278C132.539 119.226 133.174 120.471 133.174 122.014H128.223C128.223 120.744 127.554 120.109 126.216 120.109C125.698 120.109 125.264 120.256 124.912 120.549C124.561 120.832 124.385 121.188 124.385 121.618C124.385 122.058 124.6 122.414 125.029 122.688C125.459 122.961 126.143 123.186 127.08 123.361C128.027 123.537 128.857 123.747 129.57 123.991C131.953 124.812 133.145 126.281 133.145 128.4C133.145 129.846 132.5 131.022 131.211 131.931C129.932 132.839 128.271 133.293 126.23 133.293C124.873 133.293 123.662 133.049 122.598 132.561C121.533 132.072 120.703 131.408 120.107 130.568C119.512 129.729 119.214 128.845 119.214 127.917H123.828C123.848 128.649 124.092 129.187 124.561 129.528C125.029 129.86 125.63 130.026 126.362 130.026C127.036 130.026 127.539 129.89 127.871 129.616C128.213 129.343 128.384 128.986 128.384 128.547Z" fill="#5E5F63"/>
<path d="M138.076 134.831H134.575L141.855 111.672H145.371L138.076 134.831Z" fill="#F2F2F2"/>
<path d="M155.595 124.035L147.626 121.325V116.843L160.502 122.116V126.013L147.626 131.286V126.804L155.595 124.035Z" fill="#5E5F63"/>
<path d="M37.4793 0H74.8876C105.878 0 131 22.3858 131 50C131 77.6142 105.878 100 74.8876 100H37.4793V55L31 45H78.6284C81.7274 45 84.2396 47.2386 84.2396 50C84.2396 52.7614 81.7274 55 78.6284 55H48.7018V89.1667H75.9078C100.136 89.1667 119.778 71.6312 119.778 50C119.778 28.3688 100.136 10.8333 75.9078 10.8333H48.7018V21.8167H59.9243V21.8182H76.928C94.3952 21.8182 108.555 34.4356 108.555 50C108.555 65.5644 94.3952 78.1818 76.928 78.1818H59.9243V67.5H77.9482C88.6539 67.5 97.3326 59.665 97.3326 50C97.3326 40.335 88.6539 32.5 77.9482 32.5H37.4793V0Z" fill="#5E5F63"/>
</svg>
