<svg width="100" height="100" viewBox="0 0 100 100" fill="none" xmlns="http://www.w3.org/2000/svg">
<path d="M6.47929 0H43.8876C74.8776 0 100 22.3858 100 50C100 77.6142 74.8776 100 43.8876 100H6.47929V55L0 45H47.6284C50.7274 45 53.2396 47.2386 53.2396 50C53.2396 52.7614 50.7274 55 47.6284 55H17.7018V89.1667H44.9078C69.1363 89.1667 88.7775 71.6312 88.7775 50C88.7775 28.3688 69.1363 10.8333 44.9078 10.8333H17.7018V21.8167H28.9243V21.8182H45.928C63.3952 21.8182 77.555 34.4356 77.555 50C77.555 65.5644 63.3952 78.1818 45.928 78.1818H28.9243V67.5H46.9482C57.6539 67.5 66.3326 59.665 66.3326 50C66.3326 40.335 57.6539 32.5 46.9482 32.5H6.47929V0Z" fill="#5E5F63"/>
</svg>
