<svg width="218" height="45" viewBox="0 0 218 45" fill="none" xmlns="http://www.w3.org/2000/svg">
<path d="M61.6104 24.0791L69.623 26.7744V31.2715L56.6738 25.998V22.1016L69.623 16.8281V21.3105L61.6104 24.0791Z" fill="#5E5F63"/>
<path d="M72.7617 24.958C72.7617 22.4482 73.3037 20.4707 74.3877 19.0254C75.4717 17.5801 76.9854 16.8574 78.9287 16.8574C80.3447 16.8574 81.5361 17.4141 82.5029 18.5273V10.5H87.4541V33H83.0156L82.7666 31.3008C81.751 32.6289 80.4619 33.293 78.8994 33.293C77.0146 33.293 75.5205 32.5703 74.417 31.125C73.3135 29.6797 72.7617 27.624 72.7617 24.958ZM77.6982 25.2656C77.6982 28.0781 78.5186 29.4844 80.1592 29.4844C81.2529 29.4844 82.0342 29.0254 82.5029 28.1074V22.0723C82.0537 21.1348 81.2822 20.666 80.1885 20.666C78.665 20.666 77.8398 21.8965 77.7129 24.3574L77.6982 25.2656ZM97.9277 33.293C95.4961 33.293 93.5283 32.5703 92.0244 31.125C90.5205 29.6699 89.7686 27.7803 89.7686 25.4561V25.0459C89.7686 23.4248 90.0664 21.9941 90.6621 20.7539C91.2676 19.5137 92.1465 18.5566 93.2988 17.8828C94.4512 17.1992 95.8184 16.8574 97.4004 16.8574C99.627 16.8574 101.385 17.5508 102.674 18.9375C103.963 20.3145 104.607 22.2383 104.607 24.709V26.6279H94.793C94.9688 27.5166 95.3545 28.2148 95.9502 28.7227C96.5459 29.2305 97.3174 29.4844 98.2646 29.4844C99.8271 29.4844 101.048 28.9375 101.927 27.8438L104.183 30.5098C103.567 31.3594 102.693 32.0381 101.561 32.5459C100.438 33.0439 99.2266 33.293 97.9277 33.293ZM97.3711 20.666C95.9258 20.666 95.0664 21.623 94.793 23.5371H99.7734V23.1562C99.793 22.3652 99.5928 21.7549 99.1729 21.3252C98.7529 20.8857 98.1523 20.666 97.3711 20.666ZM112.723 27.126L115.228 17.1504H120.428L115.257 33H110.218L105.047 17.1504H110.262L112.723 27.126Z" fill="#DDDDDD"/>
<path d="M128.134 13.21V17.1504H130.741V20.5781H128.134V27.8291C128.134 28.4248 128.241 28.8398 128.456 29.0742C128.671 29.3086 129.096 29.4258 129.73 29.4258C130.219 29.4258 130.629 29.3965 130.961 29.3379V32.8682C130.072 33.1514 129.145 33.293 128.178 33.293C126.479 33.293 125.224 32.8926 124.413 32.0918C123.603 31.291 123.197 30.0752 123.197 28.4443V20.5781H121.176V17.1504H123.197V13.21H128.134ZM142.284 21.6182L140.658 21.501C139.105 21.501 138.109 21.9893 137.67 22.9658V33H132.733V17.1504H137.362L137.523 19.1865C138.354 17.6338 139.511 16.8574 140.995 16.8574C141.522 16.8574 141.981 16.916 142.372 17.0332L142.284 21.6182ZM152.553 33C152.377 32.6777 152.221 32.2041 152.084 31.5791C151.176 32.7217 149.906 33.293 148.275 33.293C146.781 33.293 145.512 32.8438 144.467 31.9453C143.422 31.0371 142.899 29.8994 142.899 28.5322C142.899 26.8135 143.534 25.5146 144.804 24.6357C146.073 23.7568 147.919 23.3174 150.341 23.3174H151.864V22.4824C151.864 21.0273 151.234 20.2998 149.975 20.2998C148.803 20.2998 148.217 20.876 148.217 22.0283H143.28C143.28 20.4951 143.93 19.25 145.229 18.293C146.537 17.3359 148.202 16.8574 150.224 16.8574C152.245 16.8574 153.842 17.3506 155.014 18.3369C156.186 19.3232 156.786 20.6758 156.815 22.3945V29.4111C156.835 30.8662 157.06 31.9795 157.489 32.751V33H152.553ZM149.462 29.7773C150.077 29.7773 150.585 29.6455 150.985 29.3818C151.396 29.1182 151.688 28.8203 151.864 28.4883V25.9541H150.429C148.71 25.9541 147.851 26.7256 147.851 28.2686C147.851 28.7178 148.002 29.084 148.305 29.3672C148.607 29.6406 148.993 29.7773 149.462 29.7773ZM164.77 33H159.818V17.1504H164.77V33ZM159.525 13.0635C159.525 12.3604 159.779 11.7842 160.287 11.335C160.795 10.8857 161.454 10.6611 162.265 10.6611C163.075 10.6611 163.734 10.8857 164.242 11.335C164.75 11.7842 165.004 12.3604 165.004 13.0635C165.004 13.7666 164.75 14.3428 164.242 14.792C163.734 15.2412 163.075 15.4658 162.265 15.4658C161.454 15.4658 160.795 15.2412 160.287 14.792C159.779 14.3428 159.525 13.7666 159.525 13.0635ZM173.031 33H168.08V10.5H173.031V33ZM184.384 28.5469C184.384 28.127 184.164 27.79 183.725 27.5361C183.285 27.2822 182.45 27.0186 181.22 26.7451C179.989 26.4717 178.974 26.1152 178.173 25.6758C177.372 25.2266 176.762 24.6846 176.342 24.0498C175.922 23.415 175.712 22.6875 175.712 21.8672C175.712 20.4121 176.312 19.2158 177.514 18.2783C178.715 17.3311 180.287 16.8574 182.23 16.8574C184.32 16.8574 186 17.3311 187.27 18.2783C188.539 19.2256 189.174 20.4707 189.174 22.0137H184.223C184.223 20.7441 183.554 20.1094 182.216 20.1094C181.698 20.1094 181.264 20.2559 180.912 20.5488C180.561 20.832 180.385 21.1885 180.385 21.6182C180.385 22.0576 180.6 22.4141 181.029 22.6875C181.459 22.9609 182.143 23.1855 183.08 23.3613C184.027 23.5371 184.857 23.7471 185.57 23.9912C187.953 24.8115 189.145 26.2812 189.145 28.4004C189.145 29.8457 188.5 31.0225 187.211 31.9307C185.932 32.8389 184.271 33.293 182.23 33.293C180.873 33.293 179.662 33.0488 178.598 32.5605C177.533 32.0723 176.703 31.4082 176.107 30.5684C175.512 29.7285 175.214 28.8447 175.214 27.917H179.828C179.848 28.6494 180.092 29.1865 180.561 29.5283C181.029 29.8604 181.63 30.0264 182.362 30.0264C183.036 30.0264 183.539 29.8896 183.871 29.6162C184.213 29.3428 184.384 28.9863 184.384 28.5469Z" fill="#5E5F63"/>
<path d="M194.076 34.8311H190.575L197.855 11.6719H201.371L194.076 34.8311Z" fill="#F2F2F2"/>
<path d="M211.595 24.0352L203.626 21.3252V16.8428L216.502 22.1162V26.0127L203.626 31.2861V26.8037L211.595 24.0352Z" fill="#5E5F63"/>
<path d="M13.421 1.14949L25.8731 5.19542C36.1888 8.54717 42.1301 18.7159 39.1435 27.9078C36.1568 37.0997 25.3732 41.8342 15.0575 38.4824L2.60545 34.4365L7.47247 19.4573L6.39726 15.4279L22.2513 20.5792C23.2829 20.9143 23.877 21.9312 23.5784 22.8504C23.2797 23.7696 22.2013 24.243 21.1698 23.9078L11.2081 20.6711L7.51276 32.0442L16.5688 34.9867C24.6338 37.6071 33.0683 33.8944 35.4078 26.694C37.7474 19.4937 33.106 11.5323 25.0411 8.91185L15.985 5.96936L14.7971 9.62537L18.5327 10.8392L18.5325 10.8397L24.1926 12.6787C30.0069 14.5679 33.3556 20.2993 31.6722 25.4802C29.9888 30.6612 23.9108 33.3296 18.0965 31.4405L12.4365 29.6014L13.5918 26.0458L19.5914 27.9952C23.155 29.153 26.8913 27.4836 27.9366 24.2665C28.9819 21.0493 26.9405 17.5026 23.3769 16.3447L9.90598 11.9678L13.421 1.14949Z" fill="#5E5F63"/>
</svg>
