<svg width="35" height="89" viewBox="0 0 35 89" fill="none" xmlns="http://www.w3.org/2000/svg">
<rect x="1.5" y="1.5" width="32" height="52" rx="16" stroke="#5E5F63" stroke-width="3"/>
<rect x="16" y="10" width="4" height="10" rx="2" fill="#5E5F63"/>
<path d="M7.65201 65.2418C7.23325 64.8817 6.60188 64.9293 6.24179 65.348C5.88171 65.7668 5.92927 66.3982 6.34803 66.7582L17.6982 76.5182C17.7598 76.5726 17.8267 76.6183 17.8973 76.6551C18.1675 76.7963 18.4855 76.8042 18.7589 76.6855C18.8542 76.6441 18.9441 76.5873 19.0247 76.5154L30.3716 66.7582C30.7904 66.3982 30.838 65.7668 30.4779 65.348C30.1178 64.9293 29.4864 64.8817 29.0677 65.2418L18.3599 74.4494L7.65201 65.2418Z" fill="#5E5F63"/>
<path d="M7.65201 77.2418C7.23325 76.8817 6.60188 76.9293 6.24179 77.348C5.88171 77.7668 5.92927 78.3982 6.34803 78.7582L17.6982 88.5182C17.7598 88.5726 17.8267 88.6183 17.8973 88.6551C18.1675 88.7963 18.4855 88.8042 18.7589 88.6855C18.8542 88.6441 18.9441 88.5873 19.0247 88.5154L30.3716 78.7582C30.7904 78.3982 30.838 77.7668 30.4779 77.348C30.1178 76.9293 29.4864 76.8817 29.0677 77.2418L18.3599 86.4494L7.65201 77.2418Z" fill="#5E5F63"/>
</svg>
